<?xml version="1.0" encoding="UTF-8" standalone="no"?>
<svg width="600" height="400" viewBox="0 0 600 400" xmlns="http://www.w3.org/2000/svg">
  <defs>
    <linearGradient id="bgGradient" x1="0%" y1="0%" x2="100%" y2="100%">
      <stop offset="0%" stop-color="#F2F2F7">
        <animate attributeName="stop-color" values="#F2F2F7;#E5E5EA;#F2F2F7" dur="15s" repeatCount="indefinite" />
      </stop>
      <stop offset="100%" stop-color="#E5E5EA">
        <animate attributeName="stop-color" values="#E5E5EA;#F2F2F7;#E5E5EA" dur="15s" repeatCount="indefinite" />
      </stop>
    </linearGradient>
    <filter id="glow" x="-20%" y="-20%" width="140%" height="140%">
      <feGaussianBlur stdDeviation="4" result="blur" />
      <feComposite in="SourceGraphic" in2="blur" operator="over" />
    </filter>
    <linearGradient id="shieldGradient" x1="0%" y1="0%" x2="100%" y2="100%">
      <stop offset="0%" stop-color="#007AFF">
        <animate attributeName="stop-color" values="#007AFF;#0056b3;#007AFF" dur="5s" repeatCount="indefinite" />
      </stop>
      <stop offset="100%" stop-color="#0056b3">
        <animate attributeName="stop-color" values="#0056b3;#007AFF;#0056b3" dur="5s" repeatCount="indefinite" />
      </stop>
    </linearGradient>
  </defs>
  <rect width="600" height="400" fill="url(#bgGradient)" rx="20">
    <animate attributeName="rx" values="20;25;20" dur="15s" repeatCount="indefinite" />
  </rect>
  
  <!-- 安全保护界面 -->
  <rect x="150" y="100" width="300" height="200" rx="15" fill="#FFFFFF" stroke="#E5E5EA" stroke-width="2"/>
  
  <!-- 盾牌图标 -->
  <g transform="translate(300, 170)" filter="url(#glow)">
    <path d="M0 -50 L40 -30 L40 20 L0 50 L-40 20 L-40 -30 Z" fill="url(#shieldGradient)" opacity="0.9">
      <animate attributeName="opacity" values="0.9;1;0.9" dur="3s" repeatCount="indefinite"/>
    </path>
    <path d="M0 -30 L25 -15 L25 15 L0 35 L-25 15 L-25 -15 Z" fill="#FFFFFF" opacity="0.7"/>
    <path d="M0 -15 L12 -7 L12 7 L0 17 L-12 7 L-12 -7 Z" fill="url(#shieldGradient)" opacity="0.9"/>
  </g>
  
  <!-- 锁图标 -->
  <g transform="translate(300, 170)">
    <rect x="-10" y="-5" width="20" height="25" rx="3" fill="#007AFF" opacity="0.9"/>
    <path d="M-15 -5 C-15 -20, 15 -20, 15 -5" stroke="#007AFF" stroke-width="4" fill="none"/>
    <circle cx="0" cy="7" r="5" fill="#FFFFFF">
      <animate attributeName="opacity" values="1;0.7;1" dur="2s" repeatCount="indefinite"/>
    </circle>
  </g>
  
  <!-- 数据加密动画 -->
  <g>
    <!-- 数据流 -->
    <path d="M150 150 C200 120, 250 180, 300 150" stroke="#007AFF" stroke-width="2" stroke-dasharray="5,3" fill="none" opacity="0.7">
      <animate attributeName="stroke-dashoffset" values="0;16" dur="2s" repeatCount="indefinite"/>
    </path>
    <path d="M300 150 C350 120, 400 180, 450 150" stroke="#007AFF" stroke-width="2" stroke-dasharray="5,3" fill="none" opacity="0.7">
      <animate attributeName="stroke-dashoffset" values="0;16" dur="2s" begin="0.5s" repeatCount="indefinite"/>
    </path>
    
    <!-- 加密数据符号 -->
    <g transform="translate(200, 150)">
      <text font-family="monospace" font-size="10" fill="#007AFF" opacity="0">
        <tspan x="0" y="0">01001010</tspan>
        <animate attributeName="opacity" values="0;1;0" dur="4s" begin="0s" repeatCount="indefinite"/>
      </text>
    </g>
    <g transform="translate(250, 140)">
      <text font-family="monospace" font-size="10" fill="#007AFF" opacity="0">
        <tspan x="0" y="0">10110101</tspan>
        <animate attributeName="opacity" values="0;1;0" dur="4s" begin="0.5s" repeatCount="indefinite"/>
      </text>
    </g>
    <g transform="translate(350, 150)">
      <text font-family="monospace" font-size="10" fill="#007AFF" opacity="0">
        <tspan x="0" y="0">11001010</tspan>
        <animate attributeName="opacity" values="0;1;0" dur="4s" begin="1s" repeatCount="indefinite"/>
      </text>
    </g>
    <g transform="translate(400, 140)">
      <text font-family="monospace" font-size="10" fill="#007AFF" opacity="0">
        <tspan x="0" y="0">01101001</tspan>
        <animate attributeName="opacity" values="0;1;0" dur="4s" begin="1.5s" repeatCount="indefinite"/>
      </text>
    </g>
  </g>
  
  <!-- 安全扫描动画 -->
  <g>
    <rect x="200" y="220" width="200" height="10" rx="5" fill="#F5F7FA"/>
    <rect x="200" y="220" width="0" height="10" rx="5" fill="#4CD964">
      <animate attributeName="width" values="0;200;0" dur="5s" repeatCount="indefinite"/>
    </rect>
    <text x="300" y="245" font-family="Arial, sans-serif" font-size="12" text-anchor="middle" fill="#8E8E93">数据安全扫描中...</text>
  </g>
  
  <!-- 安全状态指示器 -->
  <g transform="translate(300, 280)">
    <circle cx="0" cy="0" r="15" fill="#4CD964" opacity="0.8">
      <animate attributeName="r" values="15;17;15" dur="2s" repeatCount="indefinite"/>
      <animate attributeName="opacity" values="0.8;1;0.8" dur="2s" repeatCount="indefinite"/>
    </circle>
    <path d="M-5 0 L-2 5 L5 -5" stroke="white" stroke-width="2" fill="none"/>
    <text x="0" y="25" font-family="Arial, sans-serif" font-size="12" text-anchor="middle" fill="#4CD964">数据安全</text>
  </g>
  
  <!-- 装饰元素 -->
  <g opacity="0.1">
    <circle cx="150" cy="100" r="10" fill="#007AFF">
      <animate attributeName="r" values="10;15;10" dur="5s" repeatCount="indefinite"/>
    </circle>
    <circle cx="450" cy="100" r="10" fill="#007AFF">
      <animate attributeName="r" values="10;15;10" dur="5s" begin="1s" repeatCount="indefinite"/>
    </circle>
    <circle cx="150" cy="300" r="10" fill="#007AFF">
      <animate attributeName="r" values="10;15;10" dur="5s" begin="2s" repeatCount="indefinite"/>
    </circle>
    <circle cx="450" cy="300" r="10" fill="#007AFF">
      <animate attributeName="r" values="10;15;10" dur="5s" begin="3s" repeatCount="indefinite"/>
    </circle>
  </g>
  
  <!-- 安全连接线 -->
  <g opacity="0.2">
    <path d="M150 100 L450 100 L450 300 L150 300 Z" stroke="#007AFF" stroke-width="1" fill="none">
      <animate attributeName="stroke-dasharray" values="1,0;1,3;1,0" dur="10s" repeatCount="indefinite"/>
    </path>
  </g>
</svg>
