<?xml version="1.0" encoding="UTF-8" standalone="no"?>
<svg width="200" height="200" viewBox="0 0 200 200" xmlns="http://www.w3.org/2000/svg">
  <rect width="200" height="200" fill="white"/>
  
  <!-- 简化的二维码图案 -->
  <rect x="40" y="40" width="120" height="120" fill="white"/>
  
  <!-- 左上角定位图案 -->
  <rect x="50" y="50" width="30" height="30" fill="black"/>
  <rect x="55" y="55" width="20" height="20" fill="white"/>
  <rect x="60" y="60" width="10" height="10" fill="black"/>
  
  <!-- 右上角定位图案 -->
  <rect x="120" y="50" width="30" height="30" fill="black"/>
  <rect x="125" y="55" width="20" height="20" fill="white"/>
  <rect x="130" y="60" width="10" height="10" fill="black"/>
  
  <!-- 左下角定位图案 -->
  <rect x="50" y="120" width="30" height="30" fill="black"/>
  <rect x="55" y="125" width="20" height="20" fill="white"/>
  <rect x="60" y="130" width="10" height="10" fill="black"/>
  
  <!-- 二维码数据点 (不同于Android版) -->
  <rect x="85" y="50" width="5" height="5" fill="black"/>
  <rect x="95" y="50" width="5" height="5" fill="black"/>
  <rect x="105" y="50" width="5" height="5" fill="black"/>
  <rect x="85" y="60" width="5" height="5" fill="black"/>
  <rect x="95" y="60" width="5" height="5" fill="black"/>
  <rect x="105" y="60" width="5" height="5" fill="black"/>
  <rect x="55" y="85" width="5" height="5" fill="black"/>
  <rect x="65" y="85" width="5" height="5" fill="black"/>
  <rect x="75" y="85" width="5" height="5" fill="black"/>
  <rect x="95" y="85" width="5" height="5" fill="black"/>
  <rect x="115" y="85" width="5" height="5" fill="black"/>
  <rect x="125" y="85" width="5" height="5" fill="black"/>
  <rect x="135" y="85" width="5" height="5" fill="black"/>
  <rect x="55" y="95" width="5" height="5" fill="black"/>
  <rect x="75" y="95" width="5" height="5" fill="black"/>
  <rect x="85" y="95" width="5" height="5" fill="black"/>
  <rect x="95" y="95" width="5" height="5" fill="black"/>
  <rect x="105" y="95" width="5" height="5" fill="black"/>
  <rect x="125" y="95" width="5" height="5" fill="black"/>
  <rect x="135" y="95" width="5" height="5" fill="black"/>
  <rect x="85" y="105" width="5" height="5" fill="black"/>
  <rect x="95" y="105" width="5" height="5" fill="black"/>
  <rect x="105" y="105" width="5" height="5" fill="black"/>
  <rect x="115" y="105" width="5" height="5" fill="black"/>
  <rect x="125" y="105" width="5" height="5" fill="black"/>
  <rect x="85" y="115" width="5" height="5" fill="black"/>
  <rect x="95" y="115" width="5" height="5" fill="black"/>
  <rect x="105" y="115" width="5" height="5" fill="black"/>
  <rect x="85" y="125" width="5" height="5" fill="black"/>
  <rect x="95" y="125" width="5" height="5" fill="black"/>
  <rect x="105" y="125" width="5" height="5" fill="black"/>
  <rect x="115" y="125" width="5" height="5" fill="black"/>
  <rect x="125" y="125" width="5" height="5" fill="black"/>
  <rect x="135" y="125" width="5" height="5" fill="black"/>
  
  <!-- Apple图标 -->
  <circle cx="100" cy="100" r="15" fill="#000000"/>
  <path d="M100 90 C103 90, 107 93, 107 98 C107 103, 103 110, 100 110 C97 110, 93 103, 93 98 C93 93, 97 90, 100 90 Z" fill="white"/>
  <path d="M97 87 L103 87 L103 90 L97 90 Z" fill="white"/>
</svg>
